<svg width="25" height="24" viewBox="0 0 25 24" fill="none" xmlns="http://www.w3.org/2000/svg">
<path d="M18.9031 8C20.56 8 21.9031 6.65685 21.9031 5C21.9031 3.34315 20.56 2 18.9031 2C17.2463 2 15.9031 3.34315 15.9031 5C15.9031 6.65685 17.2463 8 18.9031 8Z" stroke="#EDEDED" stroke-width="2" stroke-linecap="round" stroke-linejoin="round"/>
<path d="M6.90314 15C8.55999 15 9.90314 13.6569 9.90314 12C9.90314 10.3431 8.55999 9 6.90314 9C5.24628 9 3.90314 10.3431 3.90314 12C3.90314 13.6569 5.24628 15 6.90314 15Z" stroke="#EDEDED" stroke-width="2" stroke-linecap="round" stroke-linejoin="round"/>
<path d="M18.9031 22C20.56 22 21.9031 20.6569 21.9031 19C21.9031 17.3431 20.56 16 18.9031 16C17.2463 16 15.9031 17.3431 15.9031 19C15.9031 20.6569 17.2463 22 18.9031 22Z" stroke="#EDEDED" stroke-width="2" stroke-linecap="round" stroke-linejoin="round"/>
<path d="M9.49316 13.51L16.3232 17.49" stroke="#EDEDED" stroke-width="2" stroke-linecap="round" stroke-linejoin="round"/>
<path d="M16.3132 6.51L9.49316 10.49" stroke="#EDEDED" stroke-width="2" stroke-linecap="round" stroke-linejoin="round"/>
</svg>
